<?xml version="1.0"?>
<svg xmlns="http://www.w3.org/2000/svg" xmlns:xlink="http://www.w3.org/1999/xlink" version="1.1" id="Capa_1" x="0px" y="0px" viewBox="0 0 512 512" style="enable-background:new 0 0 512 512;" xml:space="preserve" width="512px" height="512px"><g><g>
	<g>
		<path d="M493.22,256.001l18.404-69.354c0.888-3.346,0.187-6.838-1.924-9.582c-2.111-2.744-5.307-4.317-8.768-4.317H456.34    c-4.143,0-7.5,3.357-7.5,7.5s3.357,7.5,7.5,7.5h39.473l-17.361,65.427c-0.488,1.85-0.488,3.805,0.003,5.665l17.358,65.416h-39.782    c-4.143,0-7.5,3.357-7.5,7.5s3.357,7.5,7.5,7.5h44.901c3.462,0,6.657-1.573,8.768-4.317c2.11-2.744,2.811-6.236,1.924-9.582    L493.22,256.001z" data-original="#000000" class="active-path" fill="#000000"/>
	</g>
</g><g>
	<g>
		<path d="M55.286,324.254H16.187l17.361-65.427c0.488-1.85,0.488-3.805-0.003-5.665l-17.358-65.416h39.161    c4.142,0.001,7.5-3.356,7.5-7.499s-3.357-7.5-7.5-7.5h-44.28c-3.462,0-6.657,1.573-8.768,4.317    c-2.11,2.744-2.811,6.236-1.924,9.582l18.404,69.355L0.376,325.355c-0.888,3.346-0.187,6.838,1.924,9.582    c2.111,2.744,5.307,4.317,8.768,4.317h44.218c4.143,0,7.5-3.357,7.5-7.5S59.429,324.254,55.286,324.254z" data-original="#000000" class="active-path" fill="#000000"/>
	</g>
</g><g>
	<g>
		<path d="M404.385,235.938c-4.772-35.622-22.321-68.394-49.412-92.28c-27.338-24.102-62.487-37.376-98.972-37.376    c-36.478,0-71.623,13.27-98.959,37.366c-27.088,23.877-44.64,56.641-49.42,92.254c-0.552,4.106,2.329,7.881,6.434,8.432    c4.102,0.55,7.881-2.329,8.432-6.435c4.299-32.034,20.093-61.51,44.472-82.999c24.594-21.678,56.217-33.618,89.041-33.618    c32.83,0,64.456,11.943,89.052,33.628c24.381,21.495,40.172,50.979,44.465,83.02c0.505,3.768,3.725,6.505,7.424,6.505    c0.332,0,0.668-0.022,1.006-0.067C402.053,243.818,404.935,240.045,404.385,235.938z" data-original="#000000" class="active-path" fill="#000000"/>
	</g>
</g><g>
	<g>
		<path d="M398.054,266.205c-4.097-0.499-7.854,2.411-8.364,6.522c-8.326,67.266-65.801,117.99-133.69,117.99    c-67.94,0-125.419-50.767-133.703-118.087c-0.505-4.111-4.255-7.031-8.359-6.528c-4.111,0.506-7.033,4.249-6.527,8.36    c9.206,74.827,73.086,131.255,148.59,131.255c75.448,0,139.322-56.381,148.577-131.148    C405.086,270.46,402.166,266.714,398.054,266.205z" data-original="#000000" class="active-path" fill="#000000"/>
	</g>
</g><g>
	<g>
		<path d="M360.443,217.928c0-10.135-8.245-18.38-18.38-18.38h-65.38l6.072-14.825c5.46-11.511,3.419-24.963-5.231-34.339    c-3.902-4.231-9.432-6.359-15.161-5.852c-5.732,0.511-10.794,3.588-13.886,8.442c-0.03,0.049-0.061,0.098-0.091,0.147    l-32.401,53.556c-2.367-2.683-5.811-4.396-9.651-4.416l-31.376-0.166c-0.023,0-0.046,0-0.069,0c-3.454,0-6.702,1.34-9.152,3.778    c-2.467,2.453-3.825,5.721-3.825,9.2v95.884c0,7.156,5.822,12.978,12.978,12.978h31.376c5.848,0,10.801-3.889,12.419-9.215    l25.454,8.678c11.701,3.989,23.903,6.012,36.265,6.012h45.35c10.135,0,18.38-8.245,18.38-18.379v-6.957    c0-2.284-0.419-4.473-1.184-6.492c4.915-3.303,8.156-8.914,8.156-15.267v-6.956c0-2.591-0.539-5.058-1.51-7.295    c4.29-3.368,7.052-8.6,7.052-14.465v-6.957c0-3.009-0.727-5.851-2.015-8.36c3.575-3.355,5.81-8.121,5.81-13.398V217.928z     M204.245,308.936h-27.334v-91.831l27.334,0.145V308.936z M342.063,228.266h-3.796h-37.08c-4.143,0-7.5,3.357-7.5,7.5    s3.357,7.5,7.5,7.5h37.08c1.863,0,3.38,1.516,3.38,3.379v6.957c0,1.863-1.517,3.38-3.38,3.38h-5.542h-31.538    c-4.143,0-7.5,3.357-7.5,7.5s3.357,7.5,7.5,7.5h31.538c1.863,0,3.38,1.517,3.38,3.38v6.956c0,1.863-1.517,3.38-3.38,3.38h-6.973    h-24.565c-4.143,0-7.5,3.357-7.5,7.5s3.357,7.5,7.5,7.5h24.565c1.863,0,3.38,1.517,3.38,3.38v6.957    c0,1.863-1.517,3.379-3.38,3.379h-45.35c-10.713,0-21.286-1.753-31.425-5.209l-28.145-9.597c-0.522-0.178-1.052-0.326-1.588-0.443    v-74.056c2.626-1.15,4.893-3.066,6.494-5.577c0.031-0.049,0.062-0.099,0.092-0.148l35.333-58.401    c0.781-1.184,1.918-1.453,2.532-1.508c0.617-0.054,1.813,0.011,2.803,1.082c4.498,4.877,5.537,11.887,2.647,17.859    c-0.067,0.14-0.131,0.281-0.189,0.424l-10.389,25.369c-0.947,2.313-0.68,4.946,0.713,7.022c1.393,2.075,3.727,3.32,6.227,3.32    h76.555c1.863,0,3.38,1.517,3.38,3.38v6.955h0.001C345.443,226.748,343.926,228.266,342.063,228.266z" data-original="#000000" class="active-path" fill="#000000"/>
	</g>
</g><g>
	<g>
		<path d="M440.24,248.472c-5.422-7.673-6.523-17.442-2.944-26.129c8.172-19.838,0.188-42.65-18.568-53.063    c-8.215-4.561-13.444-12.886-13.99-22.265c-1.244-21.419-18.334-38.508-39.751-39.752c-9.381-0.546-17.705-5.775-22.265-13.99    c-10.414-18.757-33.227-26.737-53.065-18.568c-8.685,3.579-18.455,2.479-26.129-2.943c-17.521-12.382-41.537-9.675-55.865,6.294    c-6.274,6.994-15.558,10.24-24.819,8.684c-21.158-3.554-41.621,9.307-47.602,29.91c-2.618,9.024-9.569,15.975-18.593,18.593    c-20.603,5.979-33.461,26.444-29.91,47.602c1.556,9.266-1.69,18.545-8.684,24.819c-15.969,14.328-18.675,38.344-6.294,55.865    c5.422,7.674,6.522,17.442,2.943,26.129c-8.172,19.838-0.188,42.65,18.568,53.063c8.215,4.561,13.444,12.886,13.99,22.265    c1.244,21.419,18.334,38.508,39.751,39.752c9.381,0.546,17.705,5.775,22.265,13.99c10.414,18.757,33.227,26.737,53.065,18.568    c8.685-3.58,18.456-2.478,26.129,2.943c7.378,5.214,15.905,7.753,24.378,7.752c11.649-0.001,23.193-4.801,31.488-14.046    c6.274-6.994,15.56-10.241,24.819-8.684c21.154,3.552,41.621-9.307,47.602-29.91c2.618-9.024,9.569-15.975,18.593-18.593    c20.603-5.979,33.461-26.444,29.91-47.602c-1.556-9.266,1.69-18.545,8.684-24.819C449.915,290.009,452.622,265.993,440.24,248.472    z M423.928,293.171c-10.84,9.725-15.871,24.106-13.46,38.469c2.292,13.65-6.005,26.854-19.299,30.711    c-13.985,4.06-24.758,14.833-28.818,28.818c-3.857,13.295-17.059,21.592-30.711,19.299c-14.365-2.412-28.744,2.62-38.469,13.46    c-9.243,10.305-24.739,12.051-36.043,4.061c-7.277-5.143-15.769-7.776-24.349-7.776c-5.443,0-10.923,1.061-16.149,3.214    c-12.798,5.27-27.517,0.122-34.237-11.98c-7.069-12.732-19.969-20.839-34.509-21.683c-13.818-0.803-24.844-11.829-25.647-25.648    c-0.845-14.539-8.951-27.439-21.683-34.509c-12.101-6.719-17.253-21.437-11.98-34.235c5.548-13.466,3.842-28.605-4.562-40.499    c-7.989-11.305-6.243-26.8,4.061-36.043c10.84-9.725,15.871-24.106,13.46-38.469c-2.292-13.65,6.005-26.854,19.299-30.711    c13.985-4.06,24.758-14.833,28.818-28.818c3.857-13.294,17.059-21.598,30.711-19.299c14.368,2.416,28.744-2.62,38.469-13.46    c9.244-10.304,24.738-12.05,36.043-4.061c11.893,8.404,27.033,10.109,40.498,4.562c12.799-5.27,27.517-0.123,34.237,11.98    c7.069,12.732,19.969,20.839,34.509,21.683c13.818,0.803,24.844,11.829,25.647,25.647c0,0.001,0,0.001,0,0.001    c0.845,14.539,8.951,27.439,21.683,34.509c12.101,6.719,17.253,21.437,11.98,34.235c-5.548,13.466-3.842,28.605,4.562,40.499    C435.979,268.433,434.233,283.928,423.928,293.171z" data-original="#000000" class="active-path" fill="#000000"/>
	</g>
</g></g> </svg>
