<?xml version="1.0"?>
<svg xmlns="http://www.w3.org/2000/svg" xmlns:xlink="http://www.w3.org/1999/xlink" version="1.1" id="Capa_1" x="0px" y="0px" viewBox="0 0 508.1 508.1" style="enable-background:new 0 0 508.1 508.1;" xml:space="preserve" width="512px" height="512px"><g><g>
	<g>
		<path d="M249.95,58c-72.1,0-130.7,58.6-130.7,130.7s58.6,130.7,130.7,130.7s130.7-58.7,130.7-130.7    C380.65,116.6,322.05,58,249.95,58z M249.95,303c-63.1,0-114.4-51.3-114.4-114.4s51.4-114.3,114.4-114.3s114.4,51.3,114.4,114.4    S313.05,303,249.95,303z" data-original="#000000" class="active-path" fill="#000000"/>
	</g>
</g><g>
	<g>
		<path d="M381.15,329.1c14.7-12,24-30.2,24-50.6v-9c0-13.1,5.1-25.4,14.4-34.7c25.5-25.5,25.5-66.9,0-92.4    c-9.3-9.2-14.4-21.6-14.4-34.7v-9c0-36-29.3-65.3-65.3-65.3h-9c-13.1,0-25.4-5.1-34.7-14.4c-12.3-12.2-28.7-19-46.2-19    s-33.9,6.8-46.2,19.1c-9.3,9.3-21.6,14.4-34.7,14.4h-9c-36,0-65.3,29.3-65.3,65.3v9c0,13.1-5.1,25.4-14.3,34.7    c-12.3,12.3-19.1,28.8-19.1,46.2c0,17.5,6.8,33.9,19.1,46.2c9.3,9.3,14.3,21.6,14.3,34.7v9c0,22.9,11.9,43.1,29.8,54.8L52.05,459    l62-9.4l22.8,58.5l80.5-139.4c9.8,5.7,21,8.8,32.6,8.8c14.1,0,27.4-4.5,38.5-12.6l82.8,143.1l22.8-58.5l62,9.4L381.15,329.1z     M139.75,470.4l-15.2-39l-41.4,6.3l56.2-97.3h0.1c3,1,6.2,1.8,9.4,2.4c0.5,0.1,1.1,0.2,1.6,0.2c3.1,0.5,6.3,0.8,9.6,0.8h9    c8.2,0,16.1,2,23.1,5.7c4.2,2.3,8.1,5.1,11.6,8.6c0.2,0.3,0.3,0.4,0.5,0.6L139.75,470.4z M300.45,335c-1.8,1-3.6,2-5.3,3.2    c0,0-0.1,0-0.1,0.1c-1.7,1.1-3.3,2.3-4.8,3.6c-0.1,0.1-0.2,0.1-0.3,0.2c-1.5,1.2-2.9,2.5-4.2,3.8c-0.2,0.2-0.4,0.3-0.6,0.5    l-0.1,0.1c-0.1,0.1-0.2,0.1-0.2,0.2c-9.3,9.3-21.6,14.4-34.7,14.4c-11.3-0.1-21.8-3.8-30.4-10.6c-1.5-1.2-2.9-2.4-4.2-3.7    c-0.1-0.1-0.1-0.1-0.2-0.1c-12.3-12.3-28.8-19.1-46.2-19.1h-9c-1.8,0-3.5-0.1-5.3-0.3c-0.2,0-0.4-0.1-0.6-0.1    c-1.5-0.2-3.1-0.4-4.6-0.8c-0.2,0-0.3-0.1-0.5-0.1c-1.6-0.4-3.2-0.8-4.7-1.3c-0.1,0-0.1-0.1-0.2-0.1c-1.6-0.6-3.3-1.2-4.9-2    c-16.6-7.8-28.2-24.7-28.2-44.3v-9c0-17.5-6.8-33.9-19.1-46.2c-9.3-9.3-14.4-21.6-14.4-34.7c0-13.1,5.1-25.4,14.4-34.7    c12.3-12.3,19.1-28.7,19.1-46.2v-9c0-27,22-49,49-49h9c17.4,0,33.9-6.8,46.2-19.1c9.3-9.3,21.6-14.4,34.7-14.4    c13.1,0,25.4,5.1,34.7,14.4c12.3,12.3,28.7,19.1,46.2,19.1h9c27,0,49,22,49,49v9c0,17.5,6.8,33.9,19.1,46.2    c19.1,19.1,19.1,50.2,0,69.3c-12.3,12.3-19.1,28.7-19.1,46.2v9c0,16.8-8.5,31.6-21.4,40.5l-1,0.7c-0.2,0.1-0.3,0.2-0.5,0.3    c-1.9,1.2-3.9,2.3-5.9,3.2c0,0-0.1,0-0.1,0.1c-2,0.9-4.2,1.7-6.3,2.3c-0.1,0-0.3,0.1-0.4,0.1c-1.9,0.5-3.7,0.9-5.7,1.2    c-0.4,0.1-0.9,0.1-1.3,0.2c-2.1,0.3-4.2,0.4-6.3,0.4h-9c-2.2,0-4.3,0.1-6.5,0.3c-0.2,0-0.5,0.1-0.7,0.1c-1.9,0.2-3.8,0.5-5.6,0.8    c-1.3,0.3-2.6,0.6-4,1c-0.7,0.2-1.4,0.3-2.2,0.5c-1.8,0.5-3.5,1.2-5.2,1.9c-0.2,0.1-0.5,0.2-0.7,0.2c-1.9,0.8-3.7,1.6-5.5,2.6    C300.55,334.9,300.45,335,300.45,335z M383.55,431.4l-15.2,39L301.15,354c0.1-0.1,0.3-0.2,0.4-0.3c4-3,8.3-5.3,12.9-6.9    c0.4-0.1,0.7-0.3,1.1-0.4c2.2-0.7,4.5-1.3,6.7-1.7c0.4-0.1,0.9-0.1,1.3-0.2c2.3-0.3,4.7-0.6,7.1-0.6h0.1h9c2.4,0,4.7-0.1,7-0.4    c0.3,0,0.6-0.1,0.9-0.1c2-0.2,4-0.6,6-1c0.4-0.1,0.7-0.2,1.1-0.3c1.9-0.4,3.8-1,5.6-1.6c0.4-0.1,0.8-0.3,1.1-0.4    c1.8-0.6,3.6-1.3,5.3-2.1c0.1-0.1,0.3-0.1,0.4-0.2l57.7,99.9L383.55,431.4z" data-original="#000000" class="active-path" fill="#000000"/>
	</g>
</g><g>
	<g>
		<path d="M338.15,160.3h-67.4l-20.8-64.1l-20.8,64.1h-67.4l54.5,39.6l-20.8,64.1l54.5-39.6l54.5,39.6l-20.8-64.1L338.15,160.3z     M249.95,204.2l-23.4,17l8.9-27.5l-23.4-17h29l8.9-27.5l8.9,27.5h28.9l-23.4,17l9,27.5L249.95,204.2z" data-original="#000000" class="active-path" fill="#000000"/>
	</g>
</g><g>
	<g>
		<rect x="139.752" y="381.252" transform="matrix(0.4999 -0.8661 0.8661 0.4999 -263.2888 322.8389)" width="16.3" height="16.3" data-original="#000000" class="active-path" fill="#000000"/>
	</g>
</g><g>
	<g>
		<rect x="156.026" y="352.934" transform="matrix(0.4999 -0.8661 0.8661 0.4999 -230.6246 322.7715)" width="16.3" height="16.3" data-original="#000000" class="active-path" fill="#000000"/>
	</g>
</g><g>
	<g>
		<rect x="123.392" y="409.529" transform="matrix(0.4999 -0.8661 0.8661 0.4999 -295.9618 322.8112)" width="16.3" height="16.3" data-original="#000000" class="active-path" fill="#000000"/>
	</g>
</g><g>
	<g>
		<rect x="352.044" y="381.239" transform="matrix(0.8661 -0.4999 0.4999 0.8661 -146.418 232.201)" width="16.3" height="16.3" data-original="#000000" class="active-path" fill="#000000"/>
	</g>
</g><g>
	<g>
		<rect x="335.739" y="352.917" transform="matrix(0.8661 -0.4999 0.4999 0.8661 -134.4437 220.2594)" width="16.3" height="16.3" data-original="#000000" class="active-path" fill="#000000"/>
	</g>
</g><g>
	<g>
		<rect x="368.445" y="409.502" transform="matrix(0.8661 -0.4999 0.4999 0.8661 -158.3502 244.1862)" width="16.3" height="16.3" data-original="#000000" class="active-path" fill="#000000"/>
	</g>
</g></g> </svg>
