<?xml version="1.0"?>
<svg xmlns="http://www.w3.org/2000/svg" xmlns:xlink="http://www.w3.org/1999/xlink" version="1.1" id="Capa_1" x="0px" y="0px" viewBox="0 0 480 480" style="enable-background:new 0 0 480 480;" xml:space="preserve" width="512px" height="512px"><g><g>
	<g>
		<g>
			<path d="M304,40c-0.026-22.08-17.92-39.974-40-40H40C17.92,0.026,0.026,17.92,0,40v400c0.026,22.08,17.92,39.974,40,40h224     c22.08-0.026,39.974-17.92,40-40v-88h8v-80h-80v80h56v64H16V64h272v64h-56v80h80v-80h-8V40z M248,336v-48h48v48H248z M288,432v8     c0,13.255-10.745,24-24,24H40c-13.255,0-24-10.745-24-24v-8H288z M16,48v-8c0-13.255,10.745-24,24-24h224     c13.255,0,24,10.745,24,24v8H16z M296,192h-48v-48h48V192z" data-original="#000000" class="active-path" fill="#000000"/>
			<path d="M128,456h48c4.418,0,8-3.582,8-8s-3.582-8-8-8h-48c-4.418,0-8,3.582-8,8S123.582,456,128,456z" data-original="#000000" class="active-path" fill="#000000"/>
			<path d="M448,128h-80v80h80V128z M432,192h-48v-48h48V192z" data-original="#000000" class="active-path" fill="#000000"/>
			<rect x="392" y="152" width="32" height="32" data-original="#000000" class="active-path" fill="#000000"/>
			<rect x="256" y="152" width="32" height="32" data-original="#000000" class="active-path" fill="#000000"/>
			<rect x="256" y="296" width="32" height="32" data-original="#000000" class="active-path" fill="#000000"/>
			<path d="M248,240h24v-16c-10.232,0-24,0.096-24,0.096V216h-16v48h16V240z" data-original="#000000" class="active-path" fill="#000000"/>
			<polygon points="280,232 288,232 288,264 304,264 304,232 312,232 312,216 280,216    " data-original="#000000" class="active-path" fill="#000000"/>
			<rect x="256" y="248" width="24" height="16" data-original="#000000" class="active-path" fill="#000000"/>
			<rect x="320" y="128" width="16" height="16" data-original="#000000" class="active-path" fill="#000000"/>
			<polygon points="336,176 344,176 344,184 360,184 360,128 344,128 344,160 320,160 320,192 336,192    " data-original="#000000" class="active-path" fill="#000000"/>
			<polygon points="344,224 360,224 360,200 320,200 320,216 344,216    " data-original="#000000" class="active-path" fill="#000000"/>
			<polygon points="328,272 344,272 344,248 360,248 360,232 320,232 320,248 328,248    " data-original="#000000" class="active-path" fill="#000000"/>
			<rect x="320" y="280" width="64" height="16" data-original="#000000" class="active-path" fill="#000000"/>
			<polygon points="384,232 448,232 448,216 368,216 368,272 384,272    " data-original="#000000" class="active-path" fill="#000000"/>
			<rect x="432" y="296" width="16" height="56" data-original="#000000" class="active-path" fill="#000000"/>
			<rect x="320" y="336" width="104" height="16" data-original="#000000" class="active-path" fill="#000000"/>
			<rect x="400" y="312" width="24" height="16" data-original="#000000" class="active-path" fill="#000000"/>
			<polygon points="368,304 352,304 352,312 320,312 320,328 368,328    " data-original="#000000" class="active-path" fill="#000000"/>
			<polygon points="448,240 432,240 432,272 408,272 408,256 424,256 424,240 392,240 392,288 392,304 408,304 408,288 448,288         " data-original="#000000" class="active-path" fill="#000000"/>
			<rect x="376" y="312" width="16" height="16" data-original="#000000" class="active-path" fill="#000000"/>
			<polygon points="256,96 200,96 200,152 216,152 216,112 256,112    " data-original="#000000" class="active-path" fill="#000000"/>
			<polygon points="424,96 424,112 464,112 464,152 480,152 480,96    " data-original="#000000" class="active-path" fill="#000000"/>
			<polygon points="200,328 200,384 256,384 256,368 216,368 216,328    " data-original="#000000" class="active-path" fill="#000000"/>
			<polygon points="464,368 424,368 424,384 480,384 480,328 464,328    " data-original="#000000" class="active-path" fill="#000000"/>
			<path d="M200,24h-48c-4.418,0-8,3.582-8,8s3.582,8,8,8h48c4.418,0,8-3.582,8-8S204.418,24,200,24z" data-original="#000000" class="active-path" fill="#000000"/>
			<path d="M120,24h-16c-4.418,0-8,3.582-8,8s3.582,8,8,8h16c4.418,0,8-3.582,8-8S124.418,24,120,24z" data-original="#000000" class="active-path" fill="#000000"/>
			<rect x="32" y="176" width="16" height="128" data-original="#000000" class="active-path" fill="#000000"/>
			<rect x="56" y="176" width="16" height="128" data-original="#000000" class="active-path" fill="#000000"/>
			<rect x="80" y="176" width="16" height="128" data-original="#000000" class="active-path" fill="#000000"/>
			<rect x="104" y="176" width="16" height="128" data-original="#000000" class="active-path" fill="#000000"/>
			<rect x="128" y="176" width="16" height="128" data-original="#000000" class="active-path" fill="#000000"/>
		</g>
	</g>
</g></g> </svg>
