<?xml version="1.0"?>
<svg xmlns="http://www.w3.org/2000/svg" xmlns:xlink="http://www.w3.org/1999/xlink" version="1.1" id="Capa_1" x="0px" y="0px" viewBox="0 0 295.246 295.246" style="enable-background:new 0 0 295.246 295.246;" xml:space="preserve" width="512px" height="512px"><g><g>
	<path d="M129.023,78.92l18.603-32.37l27.523,47.891l0.001,0l14.95,26.013l-19.043,11.319c-3.427,2.037-5.396,5.847-5.075,9.82   c0.32,3.959,2.861,7.412,6.585,8.879l56.061,22.07c2.997,1.18,6.38,0.914,9.164-0.74c2.744-1.631,4.629-4.457,5.03-7.695   l7.405-59.792c0.489-3.946-1.306-7.842-4.652-10.028c-3.328-2.175-7.616-2.278-11.052-0.236l-18.632,11.075l-14.95-26.014   l-40.309-70.14c-5.81-10.113-20.314-9.927-26.01,0L102.526,64.82c5.459,0.594,10.773,2.279,15.569,4.995   C122.281,72.185,125.966,75.294,129.023,78.92z" data-original="#000000" class="active-path" fill="#000000"/>
	<path d="M117.165,163.131l-8.662-59.623c-0.464-3.195-2.38-5.997-5.19-7.588c-2.794-1.582-6.181-1.8-9.177-0.547l-55.583,23.246   c-3.67,1.534-6.159,5.027-6.397,9.015c-0.237,3.98,1.811,7.747,5.281,9.712l17.663,10.001L40.15,173.358l-38.142,66.37   c-5.779,10.053,1.638,22.566,13.082,22.474h71.52c-2.102-4.948-3.236-10.315-3.236-15.772c0-4.896,0.924-9.714,2.629-14.228H40.933   l25.322-44.062l-0.001-0.001l14.948-26.011l20.478,11.595c3.924,2.222,8.853,1.681,12.203-1.388   C116.412,170.021,117.667,166.582,117.165,163.131z" data-original="#000000" class="active-path" fill="#000000"/>
	<path d="M293.328,239.886c-0.029-0.052-0.054-0.106-0.084-0.158l-29.5-51.331c-2.958,3.631-6.541,6.766-10.625,9.194   c-4.794,2.849-10.117,4.658-15.617,5.35l16.816,29.261h-42.439h-30v-22.687c0-3.987-2.269-7.626-5.849-9.38   c-3.573-1.751-7.84-1.323-10.997,1.125l-47.615,36.915c-2.552,1.979-4.046,5.026-4.046,8.255c0,3.229,1.493,6.277,4.046,8.256   l47.615,36.915c3.602,2.792,8.558,2.91,12.276,0.381c2.833-1.926,4.57-5.148,4.57-8.637v-21.142h30h68.36   C291.772,262.201,298.867,249.777,293.328,239.886z" data-original="#000000" class="active-path" fill="#000000"/>
</g></g> </svg>
